<svg xmlns="http://www.w3.org/2000/svg" xmlns:xlink="http://www.w3.org/1999/xlink" width="500" zoomAndPan="magnify" viewBox="0 0 375 374.999991" height="500" preserveAspectRatio="xMidYMid meet" version="1.0"><defs><g/><clipPath id="3eacb49ddb"><path d="M 31.242188 162.773438 L 84.46875 162.773438 L 84.46875 216.003906 L 31.242188 216.003906 Z M 31.242188 162.773438 " clip-rule="nonzero"/></clipPath><clipPath id="efff1240ad"><path d="M 0.242188 0.773438 L 53.46875 0.773438 L 53.46875 54 L 0.242188 54 Z M 0.242188 0.773438 " clip-rule="nonzero"/></clipPath><clipPath id="3b3d2b3cf1"><rect x="0" width="54" y="0" height="55"/></clipPath></defs><rect x="-37.5" width="450" fill="#ffffff" y="-37.499999" height="449.999989" fill-opacity="1"/><rect x="-37.5" width="450" fill="#ffffff" y="-37.499999" height="449.999989" fill-opacity="1"/><g fill="#002147" fill-opacity="1"><g transform="translate(94.465971, 179.694391)"><g><path d="M 9.953125 -2.75 L 4 -2.75 L 2.875 0 L -0.171875 0 L 5.546875 -12.8125 L 8.46875 -12.8125 L 14.203125 0 L 11.09375 0 Z M 9.015625 -5 L 6.984375 -9.90625 L 4.953125 -5 Z M 9.015625 -5 "/></g></g></g><g fill="#002147" fill-opacity="1"><g transform="translate(113.244969, 179.694391)"><g><path d="M 10.171875 -6.609375 L 12.875 -6.609375 L 12.875 -1.40625 C 12.1875 -0.882812 11.382812 -0.484375 10.46875 -0.203125 C 9.550781 0.078125 8.628906 0.21875 7.703125 0.21875 C 6.367188 0.21875 5.171875 -0.0625 4.109375 -0.625 C 3.054688 -1.195312 2.226562 -1.984375 1.625 -2.984375 C 1.019531 -3.992188 0.71875 -5.132812 0.71875 -6.40625 C 0.71875 -7.675781 1.019531 -8.8125 1.625 -9.8125 C 2.226562 -10.820312 3.066406 -11.609375 4.140625 -12.171875 C 5.210938 -12.742188 6.421875 -13.03125 7.765625 -13.03125 C 8.878906 -13.03125 9.894531 -12.835938 10.8125 -12.453125 C 11.726562 -12.078125 12.5 -11.53125 13.125 -10.8125 L 11.21875 -9.0625 C 10.300781 -10.019531 9.195312 -10.5 7.90625 -10.5 C 7.082031 -10.5 6.351562 -10.328125 5.71875 -9.984375 C 5.09375 -9.648438 4.601562 -9.171875 4.25 -8.546875 C 3.894531 -7.921875 3.71875 -7.207031 3.71875 -6.40625 C 3.71875 -5.613281 3.894531 -4.90625 4.25 -4.28125 C 4.601562 -3.65625 5.09375 -3.171875 5.71875 -2.828125 C 6.34375 -2.484375 7.0625 -2.3125 7.875 -2.3125 C 8.726562 -2.3125 9.492188 -2.492188 10.171875 -2.859375 Z M 10.171875 -6.609375 "/></g></g></g><g fill="#002147" fill-opacity="1"><g transform="translate(132.115372, 179.694391)"><g><path d="M 1.515625 -12.8125 L 4.484375 -12.8125 L 4.484375 0 L 1.515625 0 Z M 1.515625 -12.8125 "/></g></g></g><g fill="#002147" fill-opacity="1"><g transform="translate(142.887202, 179.694391)"><g><path d="M 1.515625 -12.8125 L 4.484375 -12.8125 L 4.484375 -2.421875 L 10.90625 -2.421875 L 10.90625 0 L 1.515625 0 Z M 1.515625 -12.8125 "/></g></g></g><g fill="#002147" fill-opacity="1"><g transform="translate(158.704641, 179.694391)"><g><path d="M 11.4375 -2.375 L 11.4375 0 L 1.515625 0 L 1.515625 -12.8125 L 11.203125 -12.8125 L 11.203125 -10.421875 L 4.46875 -10.421875 L 4.46875 -7.640625 L 10.40625 -7.640625 L 10.40625 -5.34375 L 4.46875 -5.34375 L 4.46875 -2.375 Z M 11.4375 -2.375 "/></g></g></g><g fill="#002147" fill-opacity="1"><g transform="translate(175.74693, 179.694391)"><g/></g></g><g fill="#002147" fill-opacity="1"><g transform="translate(185.696102, 179.694391)"><g><path d="M 5.734375 0.21875 C 4.710938 0.21875 3.726562 0.0820312 2.78125 -0.1875 C 1.84375 -0.46875 1.085938 -0.828125 0.515625 -1.265625 L 1.515625 -3.5 C 2.066406 -3.09375 2.71875 -2.765625 3.46875 -2.515625 C 4.226562 -2.273438 4.988281 -2.15625 5.75 -2.15625 C 6.582031 -2.15625 7.203125 -2.28125 7.609375 -2.53125 C 8.015625 -2.78125 8.21875 -3.113281 8.21875 -3.53125 C 8.21875 -3.832031 8.097656 -4.082031 7.859375 -4.28125 C 7.617188 -4.488281 7.3125 -4.648438 6.9375 -4.765625 C 6.570312 -4.890625 6.070312 -5.023438 5.4375 -5.171875 C 4.457031 -5.410156 3.65625 -5.644531 3.03125 -5.875 C 2.414062 -6.101562 1.882812 -6.472656 1.4375 -6.984375 C 0.988281 -7.503906 0.765625 -8.1875 0.765625 -9.03125 C 0.765625 -9.78125 0.960938 -10.457031 1.359375 -11.0625 C 1.765625 -11.664062 2.375 -12.144531 3.1875 -12.5 C 4 -12.851562 4.992188 -13.03125 6.171875 -13.03125 C 6.984375 -13.03125 7.78125 -12.929688 8.5625 -12.734375 C 9.34375 -12.535156 10.023438 -12.253906 10.609375 -11.890625 L 9.703125 -9.640625 C 8.515625 -10.316406 7.328125 -10.65625 6.140625 -10.65625 C 5.316406 -10.65625 4.707031 -10.519531 4.3125 -10.25 C 3.914062 -9.976562 3.71875 -9.625 3.71875 -9.1875 C 3.71875 -8.75 3.945312 -8.421875 4.40625 -8.203125 C 4.863281 -7.992188 5.5625 -7.785156 6.5 -7.578125 C 7.46875 -7.347656 8.265625 -7.113281 8.890625 -6.875 C 9.515625 -6.644531 10.046875 -6.28125 10.484375 -5.78125 C 10.929688 -5.28125 11.15625 -4.601562 11.15625 -3.75 C 11.15625 -3.019531 10.953125 -2.351562 10.546875 -1.75 C 10.140625 -1.144531 9.523438 -0.664062 8.703125 -0.3125 C 7.890625 0.0390625 6.898438 0.21875 5.734375 0.21875 Z M 5.734375 0.21875 "/></g></g></g><g fill="#002147" fill-opacity="1"><g transform="translate(202.135105, 179.694391)"><g><path d="M 7.71875 0.21875 C 6.394531 0.21875 5.195312 -0.0664062 4.125 -0.640625 C 3.0625 -1.210938 2.226562 -2 1.625 -3 C 1.019531 -4.007812 0.71875 -5.144531 0.71875 -6.40625 C 0.71875 -7.65625 1.019531 -8.785156 1.625 -9.796875 C 2.226562 -10.804688 3.0625 -11.597656 4.125 -12.171875 C 5.195312 -12.742188 6.394531 -13.03125 7.71875 -13.03125 C 9.050781 -13.03125 10.25 -12.742188 11.3125 -12.171875 C 12.375 -11.597656 13.207031 -10.804688 13.8125 -9.796875 C 14.425781 -8.785156 14.734375 -7.65625 14.734375 -6.40625 C 14.734375 -5.144531 14.425781 -4.007812 13.8125 -3 C 13.207031 -2 12.375 -1.210938 11.3125 -0.640625 C 10.25 -0.0664062 9.050781 0.21875 7.71875 0.21875 Z M 7.71875 -2.3125 C 8.476562 -2.3125 9.160156 -2.484375 9.765625 -2.828125 C 10.378906 -3.171875 10.859375 -3.65625 11.203125 -4.28125 C 11.554688 -4.90625 11.734375 -5.613281 11.734375 -6.40625 C 11.734375 -7.195312 11.554688 -7.898438 11.203125 -8.515625 C 10.859375 -9.140625 10.378906 -9.625 9.765625 -9.96875 C 9.160156 -10.320312 8.476562 -10.5 7.71875 -10.5 C 6.96875 -10.5 6.285156 -10.320312 5.671875 -9.96875 C 5.054688 -9.625 4.578125 -9.140625 4.234375 -8.515625 C 3.890625 -7.898438 3.71875 -7.195312 3.71875 -6.40625 C 3.71875 -5.613281 3.890625 -4.90625 4.234375 -4.28125 C 4.578125 -3.65625 5.054688 -3.171875 5.671875 -2.828125 C 6.285156 -2.484375 6.96875 -2.3125 7.71875 -2.3125 Z M 7.71875 -2.3125 "/></g></g></g><g fill="#002147" fill-opacity="1"><g transform="translate(222.340036, 179.694391)"><g><path d="M 1.515625 -12.8125 L 4.484375 -12.8125 L 4.484375 -2.421875 L 10.90625 -2.421875 L 10.90625 0 L 1.515625 0 Z M 1.515625 -12.8125 "/></g></g></g><g fill="#002147" fill-opacity="1"><g transform="translate(238.157475, 179.694391)"><g><path d="M 7.203125 0.21875 C 5.378906 0.21875 3.957031 -0.285156 2.9375 -1.296875 C 1.914062 -2.304688 1.40625 -3.753906 1.40625 -5.640625 L 1.40625 -12.8125 L 4.375 -12.8125 L 4.375 -5.75 C 4.375 -3.457031 5.328125 -2.3125 7.234375 -2.3125 C 8.160156 -2.3125 8.863281 -2.585938 9.34375 -3.140625 C 9.832031 -3.691406 10.078125 -4.5625 10.078125 -5.75 L 10.078125 -12.8125 L 13.015625 -12.8125 L 13.015625 -5.640625 C 13.015625 -3.753906 12.503906 -2.304688 11.484375 -1.296875 C 10.460938 -0.285156 9.035156 0.21875 7.203125 0.21875 Z M 7.203125 0.21875 "/></g></g></g><g fill="#002147" fill-opacity="1"><g transform="translate(257.338665, 179.694391)"><g><path d="M 4.171875 -10.390625 L 0.078125 -10.390625 L 0.078125 -12.8125 L 11.234375 -12.8125 L 11.234375 -10.390625 L 7.140625 -10.390625 L 7.140625 0 L 4.171875 0 Z M 4.171875 -10.390625 "/></g></g></g><g fill="#002147" fill-opacity="1"><g transform="translate(273.41204, 179.694391)"><g><path d="M 1.515625 -12.8125 L 4.484375 -12.8125 L 4.484375 0 L 1.515625 0 Z M 1.515625 -12.8125 "/></g></g></g><g fill="#002147" fill-opacity="1"><g transform="translate(284.183871, 179.694391)"><g><path d="M 7.71875 0.21875 C 6.394531 0.21875 5.195312 -0.0664062 4.125 -0.640625 C 3.0625 -1.210938 2.226562 -2 1.625 -3 C 1.019531 -4.007812 0.71875 -5.144531 0.71875 -6.40625 C 0.71875 -7.65625 1.019531 -8.785156 1.625 -9.796875 C 2.226562 -10.804688 3.0625 -11.597656 4.125 -12.171875 C 5.195312 -12.742188 6.394531 -13.03125 7.71875 -13.03125 C 9.050781 -13.03125 10.25 -12.742188 11.3125 -12.171875 C 12.375 -11.597656 13.207031 -10.804688 13.8125 -9.796875 C 14.425781 -8.785156 14.734375 -7.65625 14.734375 -6.40625 C 14.734375 -5.144531 14.425781 -4.007812 13.8125 -3 C 13.207031 -2 12.375 -1.210938 11.3125 -0.640625 C 10.25 -0.0664062 9.050781 0.21875 7.71875 0.21875 Z M 7.71875 -2.3125 C 8.476562 -2.3125 9.160156 -2.484375 9.765625 -2.828125 C 10.378906 -3.171875 10.859375 -3.65625 11.203125 -4.28125 C 11.554688 -4.90625 11.734375 -5.613281 11.734375 -6.40625 C 11.734375 -7.195312 11.554688 -7.898438 11.203125 -8.515625 C 10.859375 -9.140625 10.378906 -9.625 9.765625 -9.96875 C 9.160156 -10.320312 8.476562 -10.5 7.71875 -10.5 C 6.96875 -10.5 6.285156 -10.320312 5.671875 -9.96875 C 5.054688 -9.625 4.578125 -9.140625 4.234375 -8.515625 C 3.890625 -7.898438 3.71875 -7.195312 3.71875 -6.40625 C 3.71875 -5.613281 3.890625 -4.90625 4.234375 -4.28125 C 4.578125 -3.65625 5.054688 -3.171875 5.671875 -2.828125 C 6.285156 -2.484375 6.96875 -2.3125 7.71875 -2.3125 Z M 7.71875 -2.3125 "/></g></g></g><g fill="#002147" fill-opacity="1"><g transform="translate(304.388803, 179.694391)"><g><path d="M 13.265625 -12.8125 L 13.265625 0 L 10.828125 0 L 4.453125 -7.78125 L 4.453125 0 L 1.515625 0 L 1.515625 -12.8125 L 3.96875 -12.8125 L 10.34375 -5.03125 L 10.34375 -12.8125 Z M 13.265625 -12.8125 "/></g></g></g><g fill="#002147" fill-opacity="1"><g transform="translate(323.935607, 179.694391)"><g><path d="M 5.734375 0.21875 C 4.710938 0.21875 3.726562 0.0820312 2.78125 -0.1875 C 1.84375 -0.46875 1.085938 -0.828125 0.515625 -1.265625 L 1.515625 -3.5 C 2.066406 -3.09375 2.71875 -2.765625 3.46875 -2.515625 C 4.226562 -2.273438 4.988281 -2.15625 5.75 -2.15625 C 6.582031 -2.15625 7.203125 -2.28125 7.609375 -2.53125 C 8.015625 -2.78125 8.21875 -3.113281 8.21875 -3.53125 C 8.21875 -3.832031 8.097656 -4.082031 7.859375 -4.28125 C 7.617188 -4.488281 7.3125 -4.648438 6.9375 -4.765625 C 6.570312 -4.890625 6.070312 -5.023438 5.4375 -5.171875 C 4.457031 -5.410156 3.65625 -5.644531 3.03125 -5.875 C 2.414062 -6.101562 1.882812 -6.472656 1.4375 -6.984375 C 0.988281 -7.503906 0.765625 -8.1875 0.765625 -9.03125 C 0.765625 -9.78125 0.960938 -10.457031 1.359375 -11.0625 C 1.765625 -11.664062 2.375 -12.144531 3.1875 -12.5 C 4 -12.851562 4.992188 -13.03125 6.171875 -13.03125 C 6.984375 -13.03125 7.78125 -12.929688 8.5625 -12.734375 C 9.34375 -12.535156 10.023438 -12.253906 10.609375 -11.890625 L 9.703125 -9.640625 C 8.515625 -10.316406 7.328125 -10.65625 6.140625 -10.65625 C 5.316406 -10.65625 4.707031 -10.519531 4.3125 -10.25 C 3.914062 -9.976562 3.71875 -9.625 3.71875 -9.1875 C 3.71875 -8.75 3.945312 -8.421875 4.40625 -8.203125 C 4.863281 -7.992188 5.5625 -7.785156 6.5 -7.578125 C 7.46875 -7.347656 8.265625 -7.113281 8.890625 -6.875 C 9.515625 -6.644531 10.046875 -6.28125 10.484375 -5.78125 C 10.929688 -5.28125 11.15625 -4.601562 11.15625 -3.75 C 11.15625 -3.019531 10.953125 -2.351562 10.546875 -1.75 C 10.140625 -1.144531 9.523438 -0.664062 8.703125 -0.3125 C 7.890625 0.0390625 6.898438 0.21875 5.734375 0.21875 Z M 5.734375 0.21875 "/></g></g></g><g fill="#daa520" fill-opacity="1"><g transform="translate(94.465971, 195.725862)"><g><path d="M 6.125 0 L 1.203125 0 L 1.203125 -8.828125 L 6.125 -8.828125 L 6.125 -7.921875 L 2.234375 -7.921875 L 2.234375 -5.0625 L 5.90625 -5.0625 L 5.90625 -4.171875 L 2.234375 -4.171875 L 2.234375 -0.90625 L 6.125 -0.90625 Z M 6.125 0 "/></g></g></g><g fill="#daa520" fill-opacity="1"><g transform="translate(102.530691, 195.725862)"><g><path d="M 8.25 -6.75 C 8.976562 -6.75 9.523438 -6.554688 9.890625 -6.171875 C 10.265625 -5.785156 10.453125 -5.175781 10.453125 -4.34375 L 10.453125 0 L 9.46875 0 L 9.46875 -4.296875 C 9.46875 -4.828125 9.347656 -5.222656 9.109375 -5.484375 C 8.878906 -5.753906 8.535156 -5.890625 8.078125 -5.890625 C 7.441406 -5.890625 6.976562 -5.703125 6.6875 -5.328125 C 6.394531 -4.960938 6.25 -4.421875 6.25 -3.703125 L 6.25 0 L 5.25 0 L 5.25 -4.296875 C 5.25 -4.648438 5.195312 -4.945312 5.09375 -5.1875 C 5 -5.425781 4.847656 -5.601562 4.640625 -5.71875 C 4.441406 -5.832031 4.1875 -5.890625 3.875 -5.890625 C 3.4375 -5.890625 3.082031 -5.800781 2.8125 -5.625 C 2.550781 -5.445312 2.359375 -5.175781 2.234375 -4.8125 C 2.117188 -4.457031 2.0625 -4.019531 2.0625 -3.5 L 2.0625 0 L 1.0625 0 L 1.0625 -6.625 L 1.859375 -6.625 L 2.015625 -5.6875 L 2.078125 -5.6875 C 2.203125 -5.914062 2.363281 -6.109375 2.5625 -6.265625 C 2.769531 -6.421875 3 -6.539062 3.25 -6.625 C 3.5 -6.707031 3.765625 -6.75 4.046875 -6.75 C 4.546875 -6.75 4.96875 -6.65625 5.3125 -6.46875 C 5.65625 -6.28125 5.898438 -5.992188 6.046875 -5.609375 L 6.109375 -5.609375 C 6.328125 -5.992188 6.625 -6.28125 7 -6.46875 C 7.382812 -6.65625 7.800781 -6.75 8.25 -6.75 Z M 8.25 -6.75 "/></g></g></g><g fill="#daa520" fill-opacity="1"><g transform="translate(115.17561, 195.725862)"><g><path d="M 4.171875 -6.75 C 4.992188 -6.75 5.648438 -6.460938 6.140625 -5.890625 C 6.628906 -5.328125 6.875 -4.472656 6.875 -3.328125 C 6.875 -2.578125 6.757812 -1.945312 6.53125 -1.4375 C 6.3125 -0.925781 6 -0.535156 5.59375 -0.265625 C 5.1875 -0.00390625 4.703125 0.125 4.140625 0.125 C 3.796875 0.125 3.488281 0.078125 3.21875 -0.015625 C 2.957031 -0.109375 2.726562 -0.234375 2.53125 -0.390625 C 2.34375 -0.546875 2.1875 -0.71875 2.0625 -0.90625 L 2 -0.90625 C 2.007812 -0.75 2.019531 -0.554688 2.03125 -0.328125 C 2.050781 -0.109375 2.0625 0.078125 2.0625 0.234375 L 2.0625 2.953125 L 1.0625 2.953125 L 1.0625 -6.625 L 1.890625 -6.625 L 2.015625 -5.640625 L 2.0625 -5.640625 C 2.195312 -5.847656 2.351562 -6.035156 2.53125 -6.203125 C 2.71875 -6.367188 2.945312 -6.5 3.21875 -6.59375 C 3.488281 -6.695312 3.804688 -6.75 4.171875 -6.75 Z M 4 -5.890625 C 3.539062 -5.890625 3.171875 -5.800781 2.890625 -5.625 C 2.609375 -5.445312 2.398438 -5.179688 2.265625 -4.828125 C 2.140625 -4.484375 2.070312 -4.046875 2.0625 -3.515625 L 2.0625 -3.3125 C 2.0625 -2.757812 2.125 -2.285156 2.25 -1.890625 C 2.375 -1.503906 2.578125 -1.210938 2.859375 -1.015625 C 3.140625 -0.816406 3.519531 -0.71875 4 -0.71875 C 4.414062 -0.71875 4.757812 -0.828125 5.03125 -1.046875 C 5.300781 -1.265625 5.503906 -1.570312 5.640625 -1.96875 C 5.773438 -2.363281 5.84375 -2.820312 5.84375 -3.34375 C 5.84375 -4.125 5.691406 -4.742188 5.390625 -5.203125 C 5.085938 -5.660156 4.625 -5.890625 4 -5.890625 Z M 4 -5.890625 "/></g></g></g><g fill="#daa520" fill-opacity="1"><g transform="translate(123.935215, 195.725862)"><g><path d="M 6.765625 -3.328125 C 6.765625 -2.773438 6.691406 -2.285156 6.546875 -1.859375 C 6.410156 -1.441406 6.207031 -1.082031 5.9375 -0.78125 C 5.675781 -0.488281 5.359375 -0.265625 4.984375 -0.109375 C 4.609375 0.046875 4.179688 0.125 3.703125 0.125 C 3.265625 0.125 2.859375 0.046875 2.484375 -0.109375 C 2.117188 -0.265625 1.800781 -0.488281 1.53125 -0.78125 C 1.257812 -1.082031 1.050781 -1.441406 0.90625 -1.859375 C 0.757812 -2.285156 0.6875 -2.773438 0.6875 -3.328125 C 0.6875 -4.046875 0.804688 -4.660156 1.046875 -5.171875 C 1.296875 -5.679688 1.648438 -6.070312 2.109375 -6.34375 C 2.566406 -6.613281 3.113281 -6.75 3.75 -6.75 C 4.351562 -6.75 4.878906 -6.613281 5.328125 -6.34375 C 5.785156 -6.070312 6.140625 -5.679688 6.390625 -5.171875 C 6.640625 -4.660156 6.765625 -4.046875 6.765625 -3.328125 Z M 1.734375 -3.328125 C 1.734375 -2.796875 1.800781 -2.332031 1.9375 -1.9375 C 2.082031 -1.550781 2.300781 -1.25 2.59375 -1.03125 C 2.882812 -0.820312 3.265625 -0.71875 3.734375 -0.71875 C 4.191406 -0.71875 4.566406 -0.820312 4.859375 -1.03125 C 5.160156 -1.25 5.378906 -1.550781 5.515625 -1.9375 C 5.660156 -2.332031 5.734375 -2.796875 5.734375 -3.328125 C 5.734375 -3.847656 5.660156 -4.300781 5.515625 -4.6875 C 5.378906 -5.070312 5.160156 -5.367188 4.859375 -5.578125 C 4.566406 -5.785156 4.1875 -5.890625 3.71875 -5.890625 C 3.03125 -5.890625 2.523438 -5.660156 2.203125 -5.203125 C 1.890625 -4.753906 1.734375 -4.128906 1.734375 -3.328125 Z M 1.734375 -3.328125 "/></g></g></g><g fill="#daa520" fill-opacity="1"><g transform="translate(132.567928, 195.725862)"><g><path d="M 6.453125 -0.015625 L 5.265625 -3.875 C 5.210938 -4.03125 5.160156 -4.1875 5.109375 -4.34375 C 5.066406 -4.507812 5.023438 -4.664062 4.984375 -4.8125 C 4.953125 -4.957031 4.921875 -5.09375 4.890625 -5.21875 C 4.859375 -5.351562 4.832031 -5.460938 4.8125 -5.546875 L 4.78125 -5.546875 C 4.757812 -5.460938 4.734375 -5.351562 4.703125 -5.21875 C 4.679688 -5.09375 4.648438 -4.957031 4.609375 -4.8125 C 4.566406 -4.664062 4.523438 -4.507812 4.484375 -4.34375 C 4.441406 -4.175781 4.390625 -4.007812 4.328125 -3.84375 L 3.09375 -0.015625 L 1.96875 -0.015625 L 0.140625 -6.640625 L 1.1875 -6.640625 L 2.140625 -2.984375 C 2.203125 -2.734375 2.257812 -2.488281 2.3125 -2.25 C 2.375 -2.019531 2.425781 -1.800781 2.46875 -1.59375 C 2.507812 -1.382812 2.539062 -1.207031 2.5625 -1.0625 L 2.609375 -1.0625 C 2.640625 -1.15625 2.671875 -1.269531 2.703125 -1.40625 C 2.734375 -1.550781 2.765625 -1.703125 2.796875 -1.859375 C 2.835938 -2.023438 2.878906 -2.1875 2.921875 -2.34375 C 2.960938 -2.507812 3.007812 -2.660156 3.0625 -2.796875 L 4.28125 -6.640625 L 5.359375 -6.640625 L 6.53125 -2.796875 C 6.59375 -2.609375 6.648438 -2.410156 6.703125 -2.203125 C 6.765625 -1.992188 6.820312 -1.789062 6.875 -1.59375 C 6.925781 -1.394531 6.960938 -1.21875 6.984375 -1.0625 L 7.03125 -1.0625 C 7.039062 -1.207031 7.066406 -1.378906 7.109375 -1.578125 C 7.160156 -1.773438 7.210938 -1.992188 7.265625 -2.234375 C 7.328125 -2.484375 7.390625 -2.734375 7.453125 -2.984375 L 8.421875 -6.640625 L 9.4375 -6.640625 L 7.609375 -0.015625 Z M 6.453125 -0.015625 "/></g></g></g><g fill="#daa520" fill-opacity="1"><g transform="translate(143.345721, 195.725862)"><g><path d="M 3.609375 -6.75 C 4.171875 -6.75 4.648438 -6.625 5.046875 -6.375 C 5.453125 -6.125 5.757812 -5.769531 5.96875 -5.3125 C 6.1875 -4.863281 6.296875 -4.34375 6.296875 -3.75 L 6.296875 -3.125 L 1.734375 -3.125 C 1.742188 -2.34375 1.9375 -1.75 2.3125 -1.34375 C 2.6875 -0.9375 3.210938 -0.734375 3.890625 -0.734375 C 4.304688 -0.734375 4.675781 -0.769531 5 -0.84375 C 5.320312 -0.925781 5.65625 -1.039062 6 -1.1875 L 6 -0.3125 C 5.664062 -0.15625 5.332031 -0.046875 5 0.015625 C 4.675781 0.0859375 4.289062 0.125 3.84375 0.125 C 3.207031 0.125 2.648438 -0.00390625 2.171875 -0.265625 C 1.703125 -0.523438 1.335938 -0.90625 1.078125 -1.40625 C 0.816406 -1.914062 0.6875 -2.535156 0.6875 -3.265625 C 0.6875 -3.972656 0.804688 -4.585938 1.046875 -5.109375 C 1.285156 -5.628906 1.625 -6.03125 2.0625 -6.3125 C 2.5 -6.601562 3.015625 -6.75 3.609375 -6.75 Z M 3.59375 -5.921875 C 3.0625 -5.921875 2.632812 -5.742188 2.3125 -5.390625 C 2 -5.046875 1.8125 -4.554688 1.75 -3.921875 L 5.25 -3.921875 C 5.25 -4.316406 5.1875 -4.664062 5.0625 -4.96875 C 4.945312 -5.269531 4.765625 -5.503906 4.515625 -5.671875 C 4.273438 -5.835938 3.96875 -5.921875 3.59375 -5.921875 Z M 3.59375 -5.921875 "/></g></g></g><g fill="#daa520" fill-opacity="1"><g transform="translate(151.482951, 195.725862)"><g><path d="M 4.0625 -6.75 C 4.195312 -6.75 4.335938 -6.738281 4.484375 -6.71875 C 4.628906 -6.707031 4.757812 -6.691406 4.875 -6.671875 L 4.75 -5.734375 C 4.632812 -5.765625 4.507812 -5.785156 4.375 -5.796875 C 4.25 -5.816406 4.125 -5.828125 4 -5.828125 C 3.738281 -5.828125 3.488281 -5.769531 3.25 -5.65625 C 3.019531 -5.550781 2.816406 -5.398438 2.640625 -5.203125 C 2.460938 -5.003906 2.320312 -4.765625 2.21875 -4.484375 C 2.113281 -4.203125 2.0625 -3.890625 2.0625 -3.546875 L 2.0625 0 L 1.0625 0 L 1.0625 -6.625 L 1.890625 -6.625 L 2 -5.40625 L 2.046875 -5.40625 C 2.179688 -5.644531 2.34375 -5.863281 2.53125 -6.0625 C 2.726562 -6.269531 2.953125 -6.4375 3.203125 -6.5625 C 3.460938 -6.6875 3.75 -6.75 4.0625 -6.75 Z M 4.0625 -6.75 "/></g></g></g><g fill="#daa520" fill-opacity="1"><g transform="translate(157.728884, 195.725862)"><g><path d="M 2.0625 -6.625 L 2.0625 0 L 1.0625 0 L 1.0625 -6.625 Z M 1.578125 -9.09375 C 1.734375 -9.09375 1.867188 -9.039062 1.984375 -8.9375 C 2.109375 -8.832031 2.171875 -8.664062 2.171875 -8.4375 C 2.171875 -8.21875 2.109375 -8.050781 1.984375 -7.9375 C 1.867188 -7.832031 1.734375 -7.78125 1.578125 -7.78125 C 1.398438 -7.78125 1.253906 -7.832031 1.140625 -7.9375 C 1.023438 -8.050781 0.96875 -8.21875 0.96875 -8.4375 C 0.96875 -8.664062 1.023438 -8.832031 1.140625 -8.9375 C 1.253906 -9.039062 1.398438 -9.09375 1.578125 -9.09375 Z M 1.578125 -9.09375 "/></g></g></g><g fill="#daa520" fill-opacity="1"><g transform="translate(162.041223, 195.725862)"><g><path d="M 4.1875 -6.75 C 4.976562 -6.75 5.570312 -6.554688 5.96875 -6.171875 C 6.375 -5.785156 6.578125 -5.164062 6.578125 -4.3125 L 6.578125 0 L 5.59375 0 L 5.59375 -4.25 C 5.59375 -4.800781 5.460938 -5.210938 5.203125 -5.484375 C 4.953125 -5.753906 4.566406 -5.890625 4.046875 -5.890625 C 3.316406 -5.890625 2.800781 -5.679688 2.5 -5.265625 C 2.207031 -4.859375 2.0625 -4.257812 2.0625 -3.46875 L 2.0625 0 L 1.0625 0 L 1.0625 -6.625 L 1.859375 -6.625 L 2.015625 -5.671875 L 2.078125 -5.671875 C 2.210938 -5.898438 2.390625 -6.09375 2.609375 -6.25 C 2.828125 -6.414062 3.070312 -6.539062 3.34375 -6.625 C 3.613281 -6.707031 3.894531 -6.75 4.1875 -6.75 Z M 4.1875 -6.75 "/></g></g></g><g fill="#daa520" fill-opacity="1"><g transform="translate(170.818955, 195.725862)"><g><path d="M 2.90625 2.96875 C 2.03125 2.96875 1.359375 2.804688 0.890625 2.484375 C 0.421875 2.160156 0.1875 1.707031 0.1875 1.125 C 0.1875 0.707031 0.316406 0.351562 0.578125 0.0625 C 0.847656 -0.226562 1.21875 -0.425781 1.6875 -0.53125 C 1.507812 -0.601562 1.359375 -0.71875 1.234375 -0.875 C 1.109375 -1.039062 1.046875 -1.226562 1.046875 -1.4375 C 1.046875 -1.6875 1.113281 -1.898438 1.25 -2.078125 C 1.382812 -2.265625 1.59375 -2.441406 1.875 -2.609375 C 1.53125 -2.753906 1.25 -2.992188 1.03125 -3.328125 C 0.8125 -3.660156 0.703125 -4.050781 0.703125 -4.5 C 0.703125 -4.976562 0.800781 -5.382812 1 -5.71875 C 1.195312 -6.050781 1.484375 -6.304688 1.859375 -6.484375 C 2.234375 -6.660156 2.6875 -6.75 3.21875 -6.75 C 3.332031 -6.75 3.445312 -6.742188 3.5625 -6.734375 C 3.6875 -6.722656 3.800781 -6.707031 3.90625 -6.6875 C 4.019531 -6.675781 4.117188 -6.660156 4.203125 -6.640625 L 6.46875 -6.640625 L 6.46875 -5.984375 L 5.25 -5.84375 C 5.375 -5.675781 5.472656 -5.484375 5.546875 -5.265625 C 5.628906 -5.046875 5.671875 -4.800781 5.671875 -4.53125 C 5.671875 -3.875 5.445312 -3.347656 5 -2.953125 C 4.550781 -2.566406 3.9375 -2.375 3.15625 -2.375 C 2.96875 -2.375 2.78125 -2.390625 2.59375 -2.421875 C 2.394531 -2.316406 2.242188 -2.195312 2.140625 -2.0625 C 2.035156 -1.925781 1.984375 -1.769531 1.984375 -1.59375 C 1.984375 -1.46875 2.019531 -1.363281 2.09375 -1.28125 C 2.175781 -1.207031 2.289062 -1.15625 2.4375 -1.125 C 2.59375 -1.09375 2.773438 -1.078125 2.984375 -1.078125 L 4.15625 -1.078125 C 4.875 -1.078125 5.425781 -0.925781 5.8125 -0.625 C 6.195312 -0.320312 6.390625 0.117188 6.390625 0.703125 C 6.390625 1.429688 6.085938 1.988281 5.484375 2.375 C 4.890625 2.769531 4.03125 2.96875 2.90625 2.96875 Z M 2.9375 2.1875 C 3.488281 2.1875 3.941406 2.128906 4.296875 2.015625 C 4.660156 1.910156 4.929688 1.753906 5.109375 1.546875 C 5.285156 1.335938 5.375 1.085938 5.375 0.796875 C 5.375 0.535156 5.3125 0.335938 5.1875 0.203125 C 5.070312 0.0664062 4.894531 -0.0195312 4.65625 -0.0625 C 4.425781 -0.113281 4.144531 -0.140625 3.8125 -0.140625 L 2.65625 -0.140625 C 2.363281 -0.140625 2.101562 -0.09375 1.875 0 C 1.65625 0.09375 1.484375 0.226562 1.359375 0.40625 C 1.242188 0.59375 1.1875 0.820312 1.1875 1.09375 C 1.1875 1.445312 1.335938 1.71875 1.640625 1.90625 C 1.941406 2.09375 2.375 2.1875 2.9375 2.1875 Z M 3.203125 -3.109375 C 3.679688 -3.109375 4.039062 -3.226562 4.28125 -3.46875 C 4.519531 -3.707031 4.640625 -4.0625 4.640625 -4.53125 C 4.640625 -5.019531 4.515625 -5.390625 4.265625 -5.640625 C 4.023438 -5.890625 3.664062 -6.015625 3.1875 -6.015625 C 2.726562 -6.015625 2.375 -5.882812 2.125 -5.625 C 1.875 -5.375 1.75 -5 1.75 -4.5 C 1.75 -4.050781 1.875 -3.707031 2.125 -3.46875 C 2.375 -3.226562 2.734375 -3.109375 3.203125 -3.109375 Z M 3.203125 -3.109375 "/></g></g></g><g fill="#daa520" fill-opacity="1"><g transform="translate(178.726571, 195.725862)"><g/></g></g><g fill="#daa520" fill-opacity="1"><g transform="translate(183.129547, 195.725862)"><g><path d="M 3.515625 -8.828125 C 4.660156 -8.828125 5.492188 -8.601562 6.015625 -8.15625 C 6.535156 -7.71875 6.796875 -7.082031 6.796875 -6.25 C 6.796875 -5.875 6.734375 -5.519531 6.609375 -5.1875 C 6.492188 -4.851562 6.296875 -4.554688 6.015625 -4.296875 C 5.742188 -4.046875 5.382812 -3.84375 4.9375 -3.6875 C 4.5 -3.539062 3.957031 -3.46875 3.3125 -3.46875 L 2.234375 -3.46875 L 2.234375 0 L 1.203125 0 L 1.203125 -8.828125 Z M 3.421875 -7.953125 L 2.234375 -7.953125 L 2.234375 -4.359375 L 3.203125 -4.359375 C 3.765625 -4.359375 4.234375 -4.414062 4.609375 -4.53125 C 4.984375 -4.65625 5.265625 -4.851562 5.453125 -5.125 C 5.640625 -5.394531 5.734375 -5.757812 5.734375 -6.21875 C 5.734375 -6.800781 5.546875 -7.234375 5.171875 -7.515625 C 4.796875 -7.804688 4.210938 -7.953125 3.421875 -7.953125 Z M 3.421875 -7.953125 "/></g></g></g><g fill="#daa520" fill-opacity="1"><g transform="translate(191.76226, 195.725862)"><g><path d="M 4.0625 -6.75 C 4.195312 -6.75 4.335938 -6.738281 4.484375 -6.71875 C 4.628906 -6.707031 4.757812 -6.691406 4.875 -6.671875 L 4.75 -5.734375 C 4.632812 -5.765625 4.507812 -5.785156 4.375 -5.796875 C 4.25 -5.816406 4.125 -5.828125 4 -5.828125 C 3.738281 -5.828125 3.488281 -5.769531 3.25 -5.65625 C 3.019531 -5.550781 2.816406 -5.398438 2.640625 -5.203125 C 2.460938 -5.003906 2.320312 -4.765625 2.21875 -4.484375 C 2.113281 -4.203125 2.0625 -3.890625 2.0625 -3.546875 L 2.0625 0 L 1.0625 0 L 1.0625 -6.625 L 1.890625 -6.625 L 2 -5.40625 L 2.046875 -5.40625 C 2.179688 -5.644531 2.34375 -5.863281 2.53125 -6.0625 C 2.726562 -6.269531 2.953125 -6.4375 3.203125 -6.5625 C 3.460938 -6.6875 3.75 -6.75 4.0625 -6.75 Z M 4.0625 -6.75 "/></g></g></g><g fill="#daa520" fill-opacity="1"><g transform="translate(198.008193, 195.725862)"><g><path d="M 6.765625 -3.328125 C 6.765625 -2.773438 6.691406 -2.285156 6.546875 -1.859375 C 6.410156 -1.441406 6.207031 -1.082031 5.9375 -0.78125 C 5.675781 -0.488281 5.359375 -0.265625 4.984375 -0.109375 C 4.609375 0.046875 4.179688 0.125 3.703125 0.125 C 3.265625 0.125 2.859375 0.046875 2.484375 -0.109375 C 2.117188 -0.265625 1.800781 -0.488281 1.53125 -0.78125 C 1.257812 -1.082031 1.050781 -1.441406 0.90625 -1.859375 C 0.757812 -2.285156 0.6875 -2.773438 0.6875 -3.328125 C 0.6875 -4.046875 0.804688 -4.660156 1.046875 -5.171875 C 1.296875 -5.679688 1.648438 -6.070312 2.109375 -6.34375 C 2.566406 -6.613281 3.113281 -6.75 3.75 -6.75 C 4.351562 -6.75 4.878906 -6.613281 5.328125 -6.34375 C 5.785156 -6.070312 6.140625 -5.679688 6.390625 -5.171875 C 6.640625 -4.660156 6.765625 -4.046875 6.765625 -3.328125 Z M 1.734375 -3.328125 C 1.734375 -2.796875 1.800781 -2.332031 1.9375 -1.9375 C 2.082031 -1.550781 2.300781 -1.25 2.59375 -1.03125 C 2.882812 -0.820312 3.265625 -0.71875 3.734375 -0.71875 C 4.191406 -0.71875 4.566406 -0.820312 4.859375 -1.03125 C 5.160156 -1.25 5.378906 -1.550781 5.515625 -1.9375 C 5.660156 -2.332031 5.734375 -2.796875 5.734375 -3.328125 C 5.734375 -3.847656 5.660156 -4.300781 5.515625 -4.6875 C 5.378906 -5.070312 5.160156 -5.367188 4.859375 -5.578125 C 4.566406 -5.785156 4.1875 -5.890625 3.71875 -5.890625 C 3.03125 -5.890625 2.523438 -5.660156 2.203125 -5.203125 C 1.890625 -4.753906 1.734375 -4.128906 1.734375 -3.328125 Z M 1.734375 -3.328125 "/></g></g></g><g fill="#daa520" fill-opacity="1"><g transform="translate(206.640906, 195.725862)"><g><path d="M 2.90625 2.96875 C 2.03125 2.96875 1.359375 2.804688 0.890625 2.484375 C 0.421875 2.160156 0.1875 1.707031 0.1875 1.125 C 0.1875 0.707031 0.316406 0.351562 0.578125 0.0625 C 0.847656 -0.226562 1.21875 -0.425781 1.6875 -0.53125 C 1.507812 -0.601562 1.359375 -0.71875 1.234375 -0.875 C 1.109375 -1.039062 1.046875 -1.226562 1.046875 -1.4375 C 1.046875 -1.6875 1.113281 -1.898438 1.25 -2.078125 C 1.382812 -2.265625 1.59375 -2.441406 1.875 -2.609375 C 1.53125 -2.753906 1.25 -2.992188 1.03125 -3.328125 C 0.8125 -3.660156 0.703125 -4.050781 0.703125 -4.5 C 0.703125 -4.976562 0.800781 -5.382812 1 -5.71875 C 1.195312 -6.050781 1.484375 -6.304688 1.859375 -6.484375 C 2.234375 -6.660156 2.6875 -6.75 3.21875 -6.75 C 3.332031 -6.75 3.445312 -6.742188 3.5625 -6.734375 C 3.6875 -6.722656 3.800781 -6.707031 3.90625 -6.6875 C 4.019531 -6.675781 4.117188 -6.660156 4.203125 -6.640625 L 6.46875 -6.640625 L 6.46875 -5.984375 L 5.25 -5.84375 C 5.375 -5.675781 5.472656 -5.484375 5.546875 -5.265625 C 5.628906 -5.046875 5.671875 -4.800781 5.671875 -4.53125 C 5.671875 -3.875 5.445312 -3.347656 5 -2.953125 C 4.550781 -2.566406 3.9375 -2.375 3.15625 -2.375 C 2.96875 -2.375 2.78125 -2.390625 2.59375 -2.421875 C 2.394531 -2.316406 2.242188 -2.195312 2.140625 -2.0625 C 2.035156 -1.925781 1.984375 -1.769531 1.984375 -1.59375 C 1.984375 -1.46875 2.019531 -1.363281 2.09375 -1.28125 C 2.175781 -1.207031 2.289062 -1.15625 2.4375 -1.125 C 2.59375 -1.09375 2.773438 -1.078125 2.984375 -1.078125 L 4.15625 -1.078125 C 4.875 -1.078125 5.425781 -0.925781 5.8125 -0.625 C 6.195312 -0.320312 6.390625 0.117188 6.390625 0.703125 C 6.390625 1.429688 6.085938 1.988281 5.484375 2.375 C 4.890625 2.769531 4.03125 2.96875 2.90625 2.96875 Z M 2.9375 2.1875 C 3.488281 2.1875 3.941406 2.128906 4.296875 2.015625 C 4.660156 1.910156 4.929688 1.753906 5.109375 1.546875 C 5.285156 1.335938 5.375 1.085938 5.375 0.796875 C 5.375 0.535156 5.3125 0.335938 5.1875 0.203125 C 5.070312 0.0664062 4.894531 -0.0195312 4.65625 -0.0625 C 4.425781 -0.113281 4.144531 -0.140625 3.8125 -0.140625 L 2.65625 -0.140625 C 2.363281 -0.140625 2.101562 -0.09375 1.875 0 C 1.65625 0.09375 1.484375 0.226562 1.359375 0.40625 C 1.242188 0.59375 1.1875 0.820312 1.1875 1.09375 C 1.1875 1.445312 1.335938 1.71875 1.640625 1.90625 C 1.941406 2.09375 2.375 2.1875 2.9375 2.1875 Z M 3.203125 -3.109375 C 3.679688 -3.109375 4.039062 -3.226562 4.28125 -3.46875 C 4.519531 -3.707031 4.640625 -4.0625 4.640625 -4.53125 C 4.640625 -5.019531 4.515625 -5.390625 4.265625 -5.640625 C 4.023438 -5.890625 3.664062 -6.015625 3.1875 -6.015625 C 2.726562 -6.015625 2.375 -5.882812 2.125 -5.625 C 1.875 -5.375 1.75 -5 1.75 -4.5 C 1.75 -4.050781 1.875 -3.707031 2.125 -3.46875 C 2.375 -3.226562 2.734375 -3.109375 3.203125 -3.109375 Z M 3.203125 -3.109375 "/></g></g></g><g fill="#daa520" fill-opacity="1"><g transform="translate(214.548521, 195.725862)"><g><path d="M 4.0625 -6.75 C 4.195312 -6.75 4.335938 -6.738281 4.484375 -6.71875 C 4.628906 -6.707031 4.757812 -6.691406 4.875 -6.671875 L 4.75 -5.734375 C 4.632812 -5.765625 4.507812 -5.785156 4.375 -5.796875 C 4.25 -5.816406 4.125 -5.828125 4 -5.828125 C 3.738281 -5.828125 3.488281 -5.769531 3.25 -5.65625 C 3.019531 -5.550781 2.816406 -5.398438 2.640625 -5.203125 C 2.460938 -5.003906 2.320312 -4.765625 2.21875 -4.484375 C 2.113281 -4.203125 2.0625 -3.890625 2.0625 -3.546875 L 2.0625 0 L 1.0625 0 L 1.0625 -6.625 L 1.890625 -6.625 L 2 -5.40625 L 2.046875 -5.40625 C 2.179688 -5.644531 2.34375 -5.863281 2.53125 -6.0625 C 2.726562 -6.269531 2.953125 -6.4375 3.203125 -6.5625 C 3.460938 -6.6875 3.75 -6.75 4.0625 -6.75 Z M 4.0625 -6.75 "/></g></g></g><g fill="#daa520" fill-opacity="1"><g transform="translate(220.794454, 195.725862)"><g><path d="M 3.609375 -6.75 C 4.171875 -6.75 4.648438 -6.625 5.046875 -6.375 C 5.453125 -6.125 5.757812 -5.769531 5.96875 -5.3125 C 6.1875 -4.863281 6.296875 -4.34375 6.296875 -3.75 L 6.296875 -3.125 L 1.734375 -3.125 C 1.742188 -2.34375 1.9375 -1.75 2.3125 -1.34375 C 2.6875 -0.9375 3.210938 -0.734375 3.890625 -0.734375 C 4.304688 -0.734375 4.675781 -0.769531 5 -0.84375 C 5.320312 -0.925781 5.65625 -1.039062 6 -1.1875 L 6 -0.3125 C 5.664062 -0.15625 5.332031 -0.046875 5 0.015625 C 4.675781 0.0859375 4.289062 0.125 3.84375 0.125 C 3.207031 0.125 2.648438 -0.00390625 2.171875 -0.265625 C 1.703125 -0.523438 1.335938 -0.90625 1.078125 -1.40625 C 0.816406 -1.914062 0.6875 -2.535156 0.6875 -3.265625 C 0.6875 -3.972656 0.804688 -4.585938 1.046875 -5.109375 C 1.285156 -5.628906 1.625 -6.03125 2.0625 -6.3125 C 2.5 -6.601562 3.015625 -6.75 3.609375 -6.75 Z M 3.59375 -5.921875 C 3.0625 -5.921875 2.632812 -5.742188 2.3125 -5.390625 C 2 -5.046875 1.8125 -4.554688 1.75 -3.921875 L 5.25 -3.921875 C 5.25 -4.316406 5.1875 -4.664062 5.0625 -4.96875 C 4.945312 -5.269531 4.765625 -5.503906 4.515625 -5.671875 C 4.273438 -5.835938 3.96875 -5.921875 3.59375 -5.921875 Z M 3.59375 -5.921875 "/></g></g></g><g fill="#daa520" fill-opacity="1"><g transform="translate(228.931683, 195.725862)"><g><path d="M 5.34375 -1.8125 C 5.34375 -1.382812 5.234375 -1.023438 5.015625 -0.734375 C 4.804688 -0.453125 4.503906 -0.238281 4.109375 -0.09375 C 3.722656 0.0507812 3.257812 0.125 2.71875 0.125 C 2.25 0.125 1.84375 0.0859375 1.5 0.015625 C 1.164062 -0.0546875 0.875 -0.160156 0.625 -0.296875 L 0.625 -1.21875 C 0.894531 -1.082031 1.21875 -0.957031 1.59375 -0.84375 C 1.96875 -0.738281 2.347656 -0.6875 2.734375 -0.6875 C 3.304688 -0.6875 3.722656 -0.78125 3.984375 -0.96875 C 4.242188 -1.15625 4.375 -1.410156 4.375 -1.734375 C 4.375 -1.910156 4.320312 -2.066406 4.21875 -2.203125 C 4.113281 -2.347656 3.9375 -2.484375 3.6875 -2.609375 C 3.445312 -2.742188 3.113281 -2.890625 2.6875 -3.046875 C 2.269531 -3.203125 1.90625 -3.359375 1.59375 -3.515625 C 1.289062 -3.679688 1.054688 -3.878906 0.890625 -4.109375 C 0.722656 -4.335938 0.640625 -4.632812 0.640625 -5 C 0.640625 -5.5625 0.863281 -5.992188 1.3125 -6.296875 C 1.769531 -6.597656 2.363281 -6.75 3.09375 -6.75 C 3.5 -6.75 3.875 -6.707031 4.21875 -6.625 C 4.570312 -6.539062 4.898438 -6.4375 5.203125 -6.3125 L 4.859375 -5.5 C 4.585938 -5.625 4.296875 -5.722656 3.984375 -5.796875 C 3.671875 -5.878906 3.351562 -5.921875 3.03125 -5.921875 C 2.570312 -5.921875 2.21875 -5.84375 1.96875 -5.6875 C 1.71875 -5.539062 1.59375 -5.332031 1.59375 -5.0625 C 1.59375 -4.851562 1.648438 -4.679688 1.765625 -4.546875 C 1.878906 -4.421875 2.0625 -4.296875 2.3125 -4.171875 C 2.570312 -4.054688 2.910156 -3.921875 3.328125 -3.765625 C 3.742188 -3.617188 4.101562 -3.460938 4.40625 -3.296875 C 4.707031 -3.128906 4.9375 -2.929688 5.09375 -2.703125 C 5.257812 -2.472656 5.34375 -2.175781 5.34375 -1.8125 Z M 5.34375 -1.8125 "/></g></g></g><g fill="#daa520" fill-opacity="1"><g transform="translate(236.017521, 195.725862)"><g><path d="M 5.34375 -1.8125 C 5.34375 -1.382812 5.234375 -1.023438 5.015625 -0.734375 C 4.804688 -0.453125 4.503906 -0.238281 4.109375 -0.09375 C 3.722656 0.0507812 3.257812 0.125 2.71875 0.125 C 2.25 0.125 1.84375 0.0859375 1.5 0.015625 C 1.164062 -0.0546875 0.875 -0.160156 0.625 -0.296875 L 0.625 -1.21875 C 0.894531 -1.082031 1.21875 -0.957031 1.59375 -0.84375 C 1.96875 -0.738281 2.347656 -0.6875 2.734375 -0.6875 C 3.304688 -0.6875 3.722656 -0.78125 3.984375 -0.96875 C 4.242188 -1.15625 4.375 -1.410156 4.375 -1.734375 C 4.375 -1.910156 4.320312 -2.066406 4.21875 -2.203125 C 4.113281 -2.347656 3.9375 -2.484375 3.6875 -2.609375 C 3.445312 -2.742188 3.113281 -2.890625 2.6875 -3.046875 C 2.269531 -3.203125 1.90625 -3.359375 1.59375 -3.515625 C 1.289062 -3.679688 1.054688 -3.878906 0.890625 -4.109375 C 0.722656 -4.335938 0.640625 -4.632812 0.640625 -5 C 0.640625 -5.5625 0.863281 -5.992188 1.3125 -6.296875 C 1.769531 -6.597656 2.363281 -6.75 3.09375 -6.75 C 3.5 -6.75 3.875 -6.707031 4.21875 -6.625 C 4.570312 -6.539062 4.898438 -6.4375 5.203125 -6.3125 L 4.859375 -5.5 C 4.585938 -5.625 4.296875 -5.722656 3.984375 -5.796875 C 3.671875 -5.878906 3.351562 -5.921875 3.03125 -5.921875 C 2.570312 -5.921875 2.21875 -5.84375 1.96875 -5.6875 C 1.71875 -5.539062 1.59375 -5.332031 1.59375 -5.0625 C 1.59375 -4.851562 1.648438 -4.679688 1.765625 -4.546875 C 1.878906 -4.421875 2.0625 -4.296875 2.3125 -4.171875 C 2.570312 -4.054688 2.910156 -3.921875 3.328125 -3.765625 C 3.742188 -3.617188 4.101562 -3.460938 4.40625 -3.296875 C 4.707031 -3.128906 4.9375 -2.929688 5.09375 -2.703125 C 5.257812 -2.472656 5.34375 -2.175781 5.34375 -1.8125 Z M 5.34375 -1.8125 "/></g></g></g><g fill="#daa520" fill-opacity="1"><g transform="translate(243.103359, 195.725862)"><g/></g></g><g fill="#daa520" fill-opacity="1"><g transform="translate(247.506336, 195.725862)"><g><path d="M 1.203125 0 L 1.203125 -8.828125 L 2.234375 -8.828125 L 2.234375 0 Z M 1.203125 0 "/></g></g></g><g fill="#daa520" fill-opacity="1"><g transform="translate(252.151012, 195.725862)"><g><path d="M 4.1875 -6.75 C 4.976562 -6.75 5.570312 -6.554688 5.96875 -6.171875 C 6.375 -5.785156 6.578125 -5.164062 6.578125 -4.3125 L 6.578125 0 L 5.59375 0 L 5.59375 -4.25 C 5.59375 -4.800781 5.460938 -5.210938 5.203125 -5.484375 C 4.953125 -5.753906 4.566406 -5.890625 4.046875 -5.890625 C 3.316406 -5.890625 2.800781 -5.679688 2.5 -5.265625 C 2.207031 -4.859375 2.0625 -4.257812 2.0625 -3.46875 L 2.0625 0 L 1.0625 0 L 1.0625 -6.625 L 1.859375 -6.625 L 2.015625 -5.671875 L 2.078125 -5.671875 C 2.210938 -5.898438 2.390625 -6.09375 2.609375 -6.25 C 2.828125 -6.414062 3.070312 -6.539062 3.34375 -6.625 C 3.613281 -6.707031 3.894531 -6.75 4.1875 -6.75 Z M 4.1875 -6.75 "/></g></g></g><g fill="#daa520" fill-opacity="1"><g transform="translate(260.928744, 195.725862)"><g><path d="M 5.34375 -1.8125 C 5.34375 -1.382812 5.234375 -1.023438 5.015625 -0.734375 C 4.804688 -0.453125 4.503906 -0.238281 4.109375 -0.09375 C 3.722656 0.0507812 3.257812 0.125 2.71875 0.125 C 2.25 0.125 1.84375 0.0859375 1.5 0.015625 C 1.164062 -0.0546875 0.875 -0.160156 0.625 -0.296875 L 0.625 -1.21875 C 0.894531 -1.082031 1.21875 -0.957031 1.59375 -0.84375 C 1.96875 -0.738281 2.347656 -0.6875 2.734375 -0.6875 C 3.304688 -0.6875 3.722656 -0.78125 3.984375 -0.96875 C 4.242188 -1.15625 4.375 -1.410156 4.375 -1.734375 C 4.375 -1.910156 4.320312 -2.066406 4.21875 -2.203125 C 4.113281 -2.347656 3.9375 -2.484375 3.6875 -2.609375 C 3.445312 -2.742188 3.113281 -2.890625 2.6875 -3.046875 C 2.269531 -3.203125 1.90625 -3.359375 1.59375 -3.515625 C 1.289062 -3.679688 1.054688 -3.878906 0.890625 -4.109375 C 0.722656 -4.335938 0.640625 -4.632812 0.640625 -5 C 0.640625 -5.5625 0.863281 -5.992188 1.3125 -6.296875 C 1.769531 -6.597656 2.363281 -6.75 3.09375 -6.75 C 3.5 -6.75 3.875 -6.707031 4.21875 -6.625 C 4.570312 -6.539062 4.898438 -6.4375 5.203125 -6.3125 L 4.859375 -5.5 C 4.585938 -5.625 4.296875 -5.722656 3.984375 -5.796875 C 3.671875 -5.878906 3.351562 -5.921875 3.03125 -5.921875 C 2.570312 -5.921875 2.21875 -5.84375 1.96875 -5.6875 C 1.71875 -5.539062 1.59375 -5.332031 1.59375 -5.0625 C 1.59375 -4.851562 1.648438 -4.679688 1.765625 -4.546875 C 1.878906 -4.421875 2.0625 -4.296875 2.3125 -4.171875 C 2.570312 -4.054688 2.910156 -3.921875 3.328125 -3.765625 C 3.742188 -3.617188 4.101562 -3.460938 4.40625 -3.296875 C 4.707031 -3.128906 4.9375 -2.929688 5.09375 -2.703125 C 5.257812 -2.472656 5.34375 -2.175781 5.34375 -1.8125 Z M 5.34375 -1.8125 "/></g></g></g><g fill="#daa520" fill-opacity="1"><g transform="translate(268.014582, 195.725862)"><g><path d="M 4.171875 -6.75 C 4.992188 -6.75 5.648438 -6.460938 6.140625 -5.890625 C 6.628906 -5.328125 6.875 -4.472656 6.875 -3.328125 C 6.875 -2.578125 6.757812 -1.945312 6.53125 -1.4375 C 6.3125 -0.925781 6 -0.535156 5.59375 -0.265625 C 5.1875 -0.00390625 4.703125 0.125 4.140625 0.125 C 3.796875 0.125 3.488281 0.078125 3.21875 -0.015625 C 2.957031 -0.109375 2.726562 -0.234375 2.53125 -0.390625 C 2.34375 -0.546875 2.1875 -0.71875 2.0625 -0.90625 L 2 -0.90625 C 2.007812 -0.75 2.019531 -0.554688 2.03125 -0.328125 C 2.050781 -0.109375 2.0625 0.078125 2.0625 0.234375 L 2.0625 2.953125 L 1.0625 2.953125 L 1.0625 -6.625 L 1.890625 -6.625 L 2.015625 -5.640625 L 2.0625 -5.640625 C 2.195312 -5.847656 2.351562 -6.035156 2.53125 -6.203125 C 2.71875 -6.367188 2.945312 -6.5 3.21875 -6.59375 C 3.488281 -6.695312 3.804688 -6.75 4.171875 -6.75 Z M 4 -5.890625 C 3.539062 -5.890625 3.171875 -5.800781 2.890625 -5.625 C 2.609375 -5.445312 2.398438 -5.179688 2.265625 -4.828125 C 2.140625 -4.484375 2.070312 -4.046875 2.0625 -3.515625 L 2.0625 -3.3125 C 2.0625 -2.757812 2.125 -2.285156 2.25 -1.890625 C 2.375 -1.503906 2.578125 -1.210938 2.859375 -1.015625 C 3.140625 -0.816406 3.519531 -0.71875 4 -0.71875 C 4.414062 -0.71875 4.757812 -0.828125 5.03125 -1.046875 C 5.300781 -1.265625 5.503906 -1.570312 5.640625 -1.96875 C 5.773438 -2.363281 5.84375 -2.820312 5.84375 -3.34375 C 5.84375 -4.125 5.691406 -4.742188 5.390625 -5.203125 C 5.085938 -5.660156 4.625 -5.890625 4 -5.890625 Z M 4 -5.890625 "/></g></g></g><g fill="#daa520" fill-opacity="1"><g transform="translate(276.774187, 195.725862)"><g><path d="M 2.0625 -6.625 L 2.0625 0 L 1.0625 0 L 1.0625 -6.625 Z M 1.578125 -9.09375 C 1.734375 -9.09375 1.867188 -9.039062 1.984375 -8.9375 C 2.109375 -8.832031 2.171875 -8.664062 2.171875 -8.4375 C 2.171875 -8.21875 2.109375 -8.050781 1.984375 -7.9375 C 1.867188 -7.832031 1.734375 -7.78125 1.578125 -7.78125 C 1.398438 -7.78125 1.253906 -7.832031 1.140625 -7.9375 C 1.023438 -8.050781 0.96875 -8.21875 0.96875 -8.4375 C 0.96875 -8.664062 1.023438 -8.832031 1.140625 -8.9375 C 1.253906 -9.039062 1.398438 -9.09375 1.578125 -9.09375 Z M 1.578125 -9.09375 "/></g></g></g><g fill="#daa520" fill-opacity="1"><g transform="translate(281.086526, 195.725862)"><g><path d="M 4.0625 -6.75 C 4.195312 -6.75 4.335938 -6.738281 4.484375 -6.71875 C 4.628906 -6.707031 4.757812 -6.691406 4.875 -6.671875 L 4.75 -5.734375 C 4.632812 -5.765625 4.507812 -5.785156 4.375 -5.796875 C 4.25 -5.816406 4.125 -5.828125 4 -5.828125 C 3.738281 -5.828125 3.488281 -5.769531 3.25 -5.65625 C 3.019531 -5.550781 2.816406 -5.398438 2.640625 -5.203125 C 2.460938 -5.003906 2.320312 -4.765625 2.21875 -4.484375 C 2.113281 -4.203125 2.0625 -3.890625 2.0625 -3.546875 L 2.0625 0 L 1.0625 0 L 1.0625 -6.625 L 1.890625 -6.625 L 2 -5.40625 L 2.046875 -5.40625 C 2.179688 -5.644531 2.34375 -5.863281 2.53125 -6.0625 C 2.726562 -6.269531 2.953125 -6.4375 3.203125 -6.5625 C 3.460938 -6.6875 3.75 -6.75 4.0625 -6.75 Z M 4.0625 -6.75 "/></g></g></g><g fill="#daa520" fill-opacity="1"><g transform="translate(287.332459, 195.725862)"><g><path d="M 2.0625 -6.625 L 2.0625 0 L 1.0625 0 L 1.0625 -6.625 Z M 1.578125 -9.09375 C 1.734375 -9.09375 1.867188 -9.039062 1.984375 -8.9375 C 2.109375 -8.832031 2.171875 -8.664062 2.171875 -8.4375 C 2.171875 -8.21875 2.109375 -8.050781 1.984375 -7.9375 C 1.867188 -7.832031 1.734375 -7.78125 1.578125 -7.78125 C 1.398438 -7.78125 1.253906 -7.832031 1.140625 -7.9375 C 1.023438 -8.050781 0.96875 -8.21875 0.96875 -8.4375 C 0.96875 -8.664062 1.023438 -8.832031 1.140625 -8.9375 C 1.253906 -9.039062 1.398438 -9.09375 1.578125 -9.09375 Z M 1.578125 -9.09375 "/></g></g></g><g fill="#daa520" fill-opacity="1"><g transform="translate(291.644799, 195.725862)"><g><path d="M 4.1875 -6.75 C 4.976562 -6.75 5.570312 -6.554688 5.96875 -6.171875 C 6.375 -5.785156 6.578125 -5.164062 6.578125 -4.3125 L 6.578125 0 L 5.59375 0 L 5.59375 -4.25 C 5.59375 -4.800781 5.460938 -5.210938 5.203125 -5.484375 C 4.953125 -5.753906 4.566406 -5.890625 4.046875 -5.890625 C 3.316406 -5.890625 2.800781 -5.679688 2.5 -5.265625 C 2.207031 -4.859375 2.0625 -4.257812 2.0625 -3.46875 L 2.0625 0 L 1.0625 0 L 1.0625 -6.625 L 1.859375 -6.625 L 2.015625 -5.671875 L 2.078125 -5.671875 C 2.210938 -5.898438 2.390625 -6.09375 2.609375 -6.25 C 2.828125 -6.414062 3.070312 -6.539062 3.34375 -6.625 C 3.613281 -6.707031 3.894531 -6.75 4.1875 -6.75 Z M 4.1875 -6.75 "/></g></g></g><g fill="#daa520" fill-opacity="1"><g transform="translate(300.422531, 195.725862)"><g><path d="M 2.90625 2.96875 C 2.03125 2.96875 1.359375 2.804688 0.890625 2.484375 C 0.421875 2.160156 0.1875 1.707031 0.1875 1.125 C 0.1875 0.707031 0.316406 0.351562 0.578125 0.0625 C 0.847656 -0.226562 1.21875 -0.425781 1.6875 -0.53125 C 1.507812 -0.601562 1.359375 -0.71875 1.234375 -0.875 C 1.109375 -1.039062 1.046875 -1.226562 1.046875 -1.4375 C 1.046875 -1.6875 1.113281 -1.898438 1.25 -2.078125 C 1.382812 -2.265625 1.59375 -2.441406 1.875 -2.609375 C 1.53125 -2.753906 1.25 -2.992188 1.03125 -3.328125 C 0.8125 -3.660156 0.703125 -4.050781 0.703125 -4.5 C 0.703125 -4.976562 0.800781 -5.382812 1 -5.71875 C 1.195312 -6.050781 1.484375 -6.304688 1.859375 -6.484375 C 2.234375 -6.660156 2.6875 -6.75 3.21875 -6.75 C 3.332031 -6.75 3.445312 -6.742188 3.5625 -6.734375 C 3.6875 -6.722656 3.800781 -6.707031 3.90625 -6.6875 C 4.019531 -6.675781 4.117188 -6.660156 4.203125 -6.640625 L 6.46875 -6.640625 L 6.46875 -5.984375 L 5.25 -5.84375 C 5.375 -5.675781 5.472656 -5.484375 5.546875 -5.265625 C 5.628906 -5.046875 5.671875 -4.800781 5.671875 -4.53125 C 5.671875 -3.875 5.445312 -3.347656 5 -2.953125 C 4.550781 -2.566406 3.9375 -2.375 3.15625 -2.375 C 2.96875 -2.375 2.78125 -2.390625 2.59375 -2.421875 C 2.394531 -2.316406 2.242188 -2.195312 2.140625 -2.0625 C 2.035156 -1.925781 1.984375 -1.769531 1.984375 -1.59375 C 1.984375 -1.46875 2.019531 -1.363281 2.09375 -1.28125 C 2.175781 -1.207031 2.289062 -1.15625 2.4375 -1.125 C 2.59375 -1.09375 2.773438 -1.078125 2.984375 -1.078125 L 4.15625 -1.078125 C 4.875 -1.078125 5.425781 -0.925781 5.8125 -0.625 C 6.195312 -0.320312 6.390625 0.117188 6.390625 0.703125 C 6.390625 1.429688 6.085938 1.988281 5.484375 2.375 C 4.890625 2.769531 4.03125 2.96875 2.90625 2.96875 Z M 2.9375 2.1875 C 3.488281 2.1875 3.941406 2.128906 4.296875 2.015625 C 4.660156 1.910156 4.929688 1.753906 5.109375 1.546875 C 5.285156 1.335938 5.375 1.085938 5.375 0.796875 C 5.375 0.535156 5.3125 0.335938 5.1875 0.203125 C 5.070312 0.0664062 4.894531 -0.0195312 4.65625 -0.0625 C 4.425781 -0.113281 4.144531 -0.140625 3.8125 -0.140625 L 2.65625 -0.140625 C 2.363281 -0.140625 2.101562 -0.09375 1.875 0 C 1.65625 0.09375 1.484375 0.226562 1.359375 0.40625 C 1.242188 0.59375 1.1875 0.820312 1.1875 1.09375 C 1.1875 1.445312 1.335938 1.71875 1.640625 1.90625 C 1.941406 2.09375 2.375 2.1875 2.9375 2.1875 Z M 3.203125 -3.109375 C 3.679688 -3.109375 4.039062 -3.226562 4.28125 -3.46875 C 4.519531 -3.707031 4.640625 -4.0625 4.640625 -4.53125 C 4.640625 -5.019531 4.515625 -5.390625 4.265625 -5.640625 C 4.023438 -5.890625 3.664062 -6.015625 3.1875 -6.015625 C 2.726562 -6.015625 2.375 -5.882812 2.125 -5.625 C 1.875 -5.375 1.75 -5 1.75 -4.5 C 1.75 -4.050781 1.875 -3.707031 2.125 -3.46875 C 2.375 -3.226562 2.734375 -3.109375 3.203125 -3.109375 Z M 3.203125 -3.109375 "/></g></g></g><g fill="#daa520" fill-opacity="1"><g transform="translate(94.465971, 209.975861)"><g><path d="M 6.125 0 L 1.203125 0 L 1.203125 -8.828125 L 6.125 -8.828125 L 6.125 -7.921875 L 2.234375 -7.921875 L 2.234375 -5.0625 L 5.90625 -5.0625 L 5.90625 -4.171875 L 2.234375 -4.171875 L 2.234375 -0.90625 L 6.125 -0.90625 Z M 6.125 0 "/></g></g></g><g fill="#daa520" fill-opacity="1"><g transform="translate(102.530691, 209.975861)"><g><path d="M 2.640625 -3.390625 L 0.34375 -6.625 L 1.5 -6.625 L 3.234375 -4.078125 L 4.984375 -6.625 L 6.109375 -6.625 L 3.828125 -3.390625 L 6.234375 0 L 5.09375 0 L 3.234375 -2.703125 L 1.375 0 L 0.234375 0 Z M 2.640625 -3.390625 "/></g></g></g><g fill="#daa520" fill-opacity="1"><g transform="translate(110.196607, 209.975861)"><g><path d="M 3.703125 0.125 C 3.109375 0.125 2.582031 0.00390625 2.125 -0.234375 C 1.675781 -0.484375 1.320312 -0.859375 1.0625 -1.359375 C 0.8125 -1.867188 0.6875 -2.507812 0.6875 -3.28125 C 0.6875 -4.082031 0.820312 -4.734375 1.09375 -5.234375 C 1.363281 -5.742188 1.734375 -6.125 2.203125 -6.375 C 2.671875 -6.625 3.207031 -6.75 3.8125 -6.75 C 4.132812 -6.75 4.453125 -6.710938 4.765625 -6.640625 C 5.078125 -6.578125 5.328125 -6.492188 5.515625 -6.390625 L 5.21875 -5.546875 C 5.019531 -5.628906 4.785156 -5.703125 4.515625 -5.765625 C 4.253906 -5.835938 4.007812 -5.875 3.78125 -5.875 C 3.320312 -5.875 2.941406 -5.773438 2.640625 -5.578125 C 2.335938 -5.378906 2.109375 -5.085938 1.953125 -4.703125 C 1.804688 -4.316406 1.734375 -3.84375 1.734375 -3.28125 C 1.734375 -2.75 1.804688 -2.289062 1.953125 -1.90625 C 2.097656 -1.53125 2.316406 -1.242188 2.609375 -1.046875 C 2.898438 -0.847656 3.265625 -0.75 3.703125 -0.75 C 4.054688 -0.75 4.375 -0.785156 4.65625 -0.859375 C 4.9375 -0.929688 5.191406 -1.019531 5.421875 -1.125 L 5.421875 -0.234375 C 5.203125 -0.117188 4.953125 -0.03125 4.671875 0.03125 C 4.398438 0.09375 4.078125 0.125 3.703125 0.125 Z M 3.703125 0.125 "/></g></g></g><g fill="#daa520" fill-opacity="1"><g transform="translate(117.312657, 209.975861)"><g><path d="M 3.609375 -6.75 C 4.171875 -6.75 4.648438 -6.625 5.046875 -6.375 C 5.453125 -6.125 5.757812 -5.769531 5.96875 -5.3125 C 6.1875 -4.863281 6.296875 -4.34375 6.296875 -3.75 L 6.296875 -3.125 L 1.734375 -3.125 C 1.742188 -2.34375 1.9375 -1.75 2.3125 -1.34375 C 2.6875 -0.9375 3.210938 -0.734375 3.890625 -0.734375 C 4.304688 -0.734375 4.675781 -0.769531 5 -0.84375 C 5.320312 -0.925781 5.65625 -1.039062 6 -1.1875 L 6 -0.3125 C 5.664062 -0.15625 5.332031 -0.046875 5 0.015625 C 4.675781 0.0859375 4.289062 0.125 3.84375 0.125 C 3.207031 0.125 2.648438 -0.00390625 2.171875 -0.265625 C 1.703125 -0.523438 1.335938 -0.90625 1.078125 -1.40625 C 0.816406 -1.914062 0.6875 -2.535156 0.6875 -3.265625 C 0.6875 -3.972656 0.804688 -4.585938 1.046875 -5.109375 C 1.285156 -5.628906 1.625 -6.03125 2.0625 -6.3125 C 2.5 -6.601562 3.015625 -6.75 3.609375 -6.75 Z M 3.59375 -5.921875 C 3.0625 -5.921875 2.632812 -5.742188 2.3125 -5.390625 C 2 -5.046875 1.8125 -4.554688 1.75 -3.921875 L 5.25 -3.921875 C 5.25 -4.316406 5.1875 -4.664062 5.0625 -4.96875 C 4.945312 -5.269531 4.765625 -5.503906 4.515625 -5.671875 C 4.273438 -5.835938 3.96875 -5.921875 3.59375 -5.921875 Z M 3.59375 -5.921875 "/></g></g></g><g fill="#daa520" fill-opacity="1"><g transform="translate(125.449886, 209.975861)"><g><path d="M 2.0625 0 L 1.0625 0 L 1.0625 -9.40625 L 2.0625 -9.40625 Z M 2.0625 0 "/></g></g></g><g fill="#daa520" fill-opacity="1"><g transform="translate(129.762226, 209.975861)"><g><path d="M 2.0625 0 L 1.0625 0 L 1.0625 -9.40625 L 2.0625 -9.40625 Z M 2.0625 0 "/></g></g></g><g fill="#daa520" fill-opacity="1"><g transform="translate(134.074565, 209.975861)"><g><path d="M 3.609375 -6.75 C 4.171875 -6.75 4.648438 -6.625 5.046875 -6.375 C 5.453125 -6.125 5.757812 -5.769531 5.96875 -5.3125 C 6.1875 -4.863281 6.296875 -4.34375 6.296875 -3.75 L 6.296875 -3.125 L 1.734375 -3.125 C 1.742188 -2.34375 1.9375 -1.75 2.3125 -1.34375 C 2.6875 -0.9375 3.210938 -0.734375 3.890625 -0.734375 C 4.304688 -0.734375 4.675781 -0.769531 5 -0.84375 C 5.320312 -0.925781 5.65625 -1.039062 6 -1.1875 L 6 -0.3125 C 5.664062 -0.15625 5.332031 -0.046875 5 0.015625 C 4.675781 0.0859375 4.289062 0.125 3.84375 0.125 C 3.207031 0.125 2.648438 -0.00390625 2.171875 -0.265625 C 1.703125 -0.523438 1.335938 -0.90625 1.078125 -1.40625 C 0.816406 -1.914062 0.6875 -2.535156 0.6875 -3.265625 C 0.6875 -3.972656 0.804688 -4.585938 1.046875 -5.109375 C 1.285156 -5.628906 1.625 -6.03125 2.0625 -6.3125 C 2.5 -6.601562 3.015625 -6.75 3.609375 -6.75 Z M 3.59375 -5.921875 C 3.0625 -5.921875 2.632812 -5.742188 2.3125 -5.390625 C 2 -5.046875 1.8125 -4.554688 1.75 -3.921875 L 5.25 -3.921875 C 5.25 -4.316406 5.1875 -4.664062 5.0625 -4.96875 C 4.945312 -5.269531 4.765625 -5.503906 4.515625 -5.671875 C 4.273438 -5.835938 3.96875 -5.921875 3.59375 -5.921875 Z M 3.59375 -5.921875 "/></g></g></g><g fill="#daa520" fill-opacity="1"><g transform="translate(142.211795, 209.975861)"><g><path d="M 4.1875 -6.75 C 4.976562 -6.75 5.570312 -6.554688 5.96875 -6.171875 C 6.375 -5.785156 6.578125 -5.164062 6.578125 -4.3125 L 6.578125 0 L 5.59375 0 L 5.59375 -4.25 C 5.59375 -4.800781 5.460938 -5.210938 5.203125 -5.484375 C 4.953125 -5.753906 4.566406 -5.890625 4.046875 -5.890625 C 3.316406 -5.890625 2.800781 -5.679688 2.5 -5.265625 C 2.207031 -4.859375 2.0625 -4.257812 2.0625 -3.46875 L 2.0625 0 L 1.0625 0 L 1.0625 -6.625 L 1.859375 -6.625 L 2.015625 -5.671875 L 2.078125 -5.671875 C 2.210938 -5.898438 2.390625 -6.09375 2.609375 -6.25 C 2.828125 -6.414062 3.070312 -6.539062 3.34375 -6.625 C 3.613281 -6.707031 3.894531 -6.75 4.1875 -6.75 Z M 4.1875 -6.75 "/></g></g></g><g fill="#daa520" fill-opacity="1"><g transform="translate(150.989527, 209.975861)"><g><path d="M 3.703125 0.125 C 3.109375 0.125 2.582031 0.00390625 2.125 -0.234375 C 1.675781 -0.484375 1.320312 -0.859375 1.0625 -1.359375 C 0.8125 -1.867188 0.6875 -2.507812 0.6875 -3.28125 C 0.6875 -4.082031 0.820312 -4.734375 1.09375 -5.234375 C 1.363281 -5.742188 1.734375 -6.125 2.203125 -6.375 C 2.671875 -6.625 3.207031 -6.75 3.8125 -6.75 C 4.132812 -6.75 4.453125 -6.710938 4.765625 -6.640625 C 5.078125 -6.578125 5.328125 -6.492188 5.515625 -6.390625 L 5.21875 -5.546875 C 5.019531 -5.628906 4.785156 -5.703125 4.515625 -5.765625 C 4.253906 -5.835938 4.007812 -5.875 3.78125 -5.875 C 3.320312 -5.875 2.941406 -5.773438 2.640625 -5.578125 C 2.335938 -5.378906 2.109375 -5.085938 1.953125 -4.703125 C 1.804688 -4.316406 1.734375 -3.84375 1.734375 -3.28125 C 1.734375 -2.75 1.804688 -2.289062 1.953125 -1.90625 C 2.097656 -1.53125 2.316406 -1.242188 2.609375 -1.046875 C 2.898438 -0.847656 3.265625 -0.75 3.703125 -0.75 C 4.054688 -0.75 4.375 -0.785156 4.65625 -0.859375 C 4.9375 -0.929688 5.191406 -1.019531 5.421875 -1.125 L 5.421875 -0.234375 C 5.203125 -0.117188 4.953125 -0.03125 4.671875 0.03125 C 4.398438 0.09375 4.078125 0.125 3.703125 0.125 Z M 3.703125 0.125 "/></g></g></g><g fill="#daa520" fill-opacity="1"><g transform="translate(158.105577, 209.975861)"><g><path d="M 3.609375 -6.75 C 4.171875 -6.75 4.648438 -6.625 5.046875 -6.375 C 5.453125 -6.125 5.757812 -5.769531 5.96875 -5.3125 C 6.1875 -4.863281 6.296875 -4.34375 6.296875 -3.75 L 6.296875 -3.125 L 1.734375 -3.125 C 1.742188 -2.34375 1.9375 -1.75 2.3125 -1.34375 C 2.6875 -0.9375 3.210938 -0.734375 3.890625 -0.734375 C 4.304688 -0.734375 4.675781 -0.769531 5 -0.84375 C 5.320312 -0.925781 5.65625 -1.039062 6 -1.1875 L 6 -0.3125 C 5.664062 -0.15625 5.332031 -0.046875 5 0.015625 C 4.675781 0.0859375 4.289062 0.125 3.84375 0.125 C 3.207031 0.125 2.648438 -0.00390625 2.171875 -0.265625 C 1.703125 -0.523438 1.335938 -0.90625 1.078125 -1.40625 C 0.816406 -1.914062 0.6875 -2.535156 0.6875 -3.265625 C 0.6875 -3.972656 0.804688 -4.585938 1.046875 -5.109375 C 1.285156 -5.628906 1.625 -6.03125 2.0625 -6.3125 C 2.5 -6.601562 3.015625 -6.75 3.609375 -6.75 Z M 3.59375 -5.921875 C 3.0625 -5.921875 2.632812 -5.742188 2.3125 -5.390625 C 2 -5.046875 1.8125 -4.554688 1.75 -3.921875 L 5.25 -3.921875 C 5.25 -4.316406 5.1875 -4.664062 5.0625 -4.96875 C 4.945312 -5.269531 4.765625 -5.503906 4.515625 -5.671875 C 4.273438 -5.835938 3.96875 -5.921875 3.59375 -5.921875 Z M 3.59375 -5.921875 "/></g></g></g><g fill="#daa520" fill-opacity="1"><g transform="translate(166.242807, 209.975861)"><g><path d="M 0.90625 -0.625 C 0.90625 -0.90625 0.972656 -1.101562 1.109375 -1.21875 C 1.242188 -1.34375 1.410156 -1.40625 1.609375 -1.40625 C 1.816406 -1.40625 1.988281 -1.34375 2.125 -1.21875 C 2.269531 -1.101562 2.34375 -0.90625 2.34375 -0.625 C 2.34375 -0.351562 2.269531 -0.148438 2.125 -0.015625 C 1.988281 0.109375 1.816406 0.171875 1.609375 0.171875 C 1.410156 0.171875 1.242188 0.109375 1.109375 -0.015625 C 0.972656 -0.148438 0.90625 -0.351562 0.90625 -0.625 Z M 0.90625 -0.625 "/></g></g></g><path stroke-linecap="butt" transform="matrix(0, 0.75, -0.75, 0, 244.831644, 184.615682)" fill="none" stroke-linejoin="miter" d="M 0.00200696 0.499484 L 19.564508 0.499484 " stroke="#daa520" stroke-width="1" stroke-opacity="1" stroke-miterlimit="4"/><g clip-path="url(#3eacb49ddb)"><g transform="matrix(1, 0, 0, 1, 31, 162)"><g clip-path="url(#3b3d2b3cf1)"><g clip-path="url(#efff1240ad)"><path fill="#002147" d="M 0.242188 0.773438 L 53.46875 0.773438 L 53.46875 54 L 0.242188 54 Z M 0.242188 0.773438 " fill-opacity="1" fill-rule="nonzero"/></g></g></g></g><path stroke-linecap="butt" transform="matrix(0.75, 0, 0, 0.75, 55.100106, 175.449716)" fill="none" stroke-linejoin="miter" d="M 0.00194242 2.499338 L 39.158195 2.499338 " stroke="#ffffff" stroke-width="5" stroke-opacity="1" stroke-miterlimit="4"/><path stroke-linecap="butt" transform="matrix(-0.00127513, 0.749999, -0.749999, -0.00127513, 58.886597, 177.287669)" fill="none" stroke-linejoin="miter" d="M 0.000899606 2.49984 L 32.292619 2.502231 " stroke="#ffffff" stroke-width="5" stroke-opacity="1" stroke-miterlimit="4"/><path stroke-linecap="butt" transform="matrix(0.75, 0, 0, 0.75, 31.242607, 197.750056)" fill="none" stroke-linejoin="miter" d="M -0.000559985 2.499926 L 31.780692 2.499926 " stroke="#ffffff" stroke-width="5" stroke-opacity="1" stroke-miterlimit="4"/></svg>