<svg xmlns="http://www.w3.org/2000/svg" xmlns:xlink="http://www.w3.org/1999/xlink" width="500" zoomAndPan="magnify" viewBox="0 0 375 374.999991" height="500" preserveAspectRatio="xMidYMid meet" version="1.0"><defs><clipPath id="29560f1c28"><path d="M 36.0625 37.5 L 338.9375 37.5 L 338.9375 340.40625 L 36.0625 340.40625 Z M 36.0625 37.5 " clip-rule="nonzero"/></clipPath><clipPath id="2bff079ae0"><path d="M 0.0625 0.5 L 302.9375 0.5 L 302.9375 303.40625 L 0.0625 303.40625 Z M 0.0625 0.5 " clip-rule="nonzero"/></clipPath><clipPath id="f257cab4de"><rect x="0" width="303" y="0" height="304"/></clipPath></defs><rect x="-37.5" width="450" fill="#ffffff" y="-37.499999" height="449.999989" fill-opacity="1"/><rect x="-37.5" width="450" fill="#ffffff" y="-37.499999" height="449.999989" fill-opacity="1"/><g clip-path="url(#29560f1c28)"><g transform="matrix(1, 0, 0, 1, 36, 37)"><g clip-path="url(#f257cab4de)"><g clip-path="url(#2bff079ae0)"><path fill="#002147" d="M 0.0625 0.5 L 302.9375 0.5 L 302.9375 303.378906 L 0.0625 303.378906 Z M 0.0625 0.5 " fill-opacity="1" fill-rule="nonzero"/></g></g></g></g><path stroke-linecap="butt" transform="matrix(0.75, 0, 0, 0.75, 171.818182, 109.797648)" fill="none" stroke-linejoin="miter" d="M -0.00236769 13.99897 L 222.825772 13.99897 " stroke="#ffffff" stroke-width="28" stroke-opacity="1" stroke-miterlimit="4"/><path stroke-linecap="butt" transform="matrix(-0.00127513, 0.749999, -0.749999, -0.00127513, 193.217437, 120.064329)" fill="none" stroke-linejoin="miter" d="M 0.000527522 13.99827 L 183.761221 13.998346 " stroke="#ffffff" stroke-width="28" stroke-opacity="1" stroke-miterlimit="4"/><path stroke-linecap="butt" transform="matrix(0.75, 0, 0, 0.75, 36.061258, 236.693833)" fill="none" stroke-linejoin="miter" d="M 0.00165561 14.001973 L 195.236043 14.001973 " stroke="#ffffff" stroke-width="28" stroke-opacity="1" stroke-miterlimit="4"/></svg>